<svg width="210" height="60" viewBox="0 0 210 60" fill="none" xmlns="http://www.w3.org/2000/svg">
<path d="M202.222 60H7.77778C3.50194 60 0 56.6231 0 52.5V7.5C0 3.37688 3.50194 4.76837e-06 7.77778 4.76837e-06H202.222C206.498 4.76837e-06 210 3.37688 210 7.5V52.5C210 56.6231 206.498 60 202.222 60Z" fill="black"/>
<path d="M202.222 1.20188C205.823 1.20188 208.754 4.0275 208.754 7.5V52.5C208.754 55.9725 205.823 58.7981 202.222 58.7981H7.77778C4.17667 58.7981 1.24639 55.9725 1.24639 52.5V7.5C1.24639 4.0275 4.17667 1.20188 7.77778 1.20188H202.222ZM202.222 4.76837e-06H7.77778C3.50194 4.76837e-06 0 3.37688 0 7.5V52.5C0 56.6231 3.50194 60 7.77778 60H202.222C206.498 60 210 56.6231 210 52.5V7.5C210 3.37688 206.498 4.76837e-06 202.222 4.76837e-06Z" fill="#A6A6A6"/>
<path d="M16.2331 11.3083C15.7762 11.7695 15.5117 12.4877 15.5117 13.4177V46.5902C15.5117 47.5202 15.7762 48.2383 16.2331 48.6995L16.3459 48.8008L35.6231 30.2195V29.7808L16.3459 11.1995L16.2331 11.3083Z" fill="url(#paint0_linear_8295_40782)"/>
<path d="M42.0417 36.416L35.623 30.2191V29.7804L42.0494 23.5835L42.1933 23.6641L49.8039 27.8398C51.9758 29.0248 51.9758 30.9748 49.8039 32.1673L42.1933 36.3354L42.0417 36.416Z" fill="url(#paint1_linear_8295_40782)"/>
<path d="M42.1927 36.3357L35.6224 30.0001L16.2324 48.6995C16.9538 49.4307 18.1302 49.5188 19.468 48.7876L42.1927 36.3357Z" fill="url(#paint2_linear_8295_40782)"/>
<path d="M42.1927 23.6644L19.468 11.2125C18.1302 10.4888 16.9538 10.5769 16.2324 11.3081L35.6224 30L42.1927 23.6644Z" fill="url(#paint3_linear_8295_40782)"/>
<path d="M73.7606 15.366C73.7606 16.6185 73.3717 17.6216 72.6056 18.3697C71.7248 19.2566 70.5776 19.7028 69.1717 19.7028C67.8281 19.7028 66.6809 19.2491 65.7398 18.3547C64.7967 17.4472 64.3262 16.3335 64.3262 15.0003C64.3262 13.6672 64.7967 12.5535 65.7398 11.6535C66.6809 10.7516 67.8281 10.2979 69.1717 10.2979C69.8406 10.2979 70.4784 10.431 71.087 10.6785C71.6937 10.9279 72.1876 11.2654 72.5453 11.6816L71.7326 12.4729C71.1084 11.7622 70.2587 11.4116 69.1717 11.4116C68.1917 11.4116 67.342 11.7416 66.6206 12.4072C65.907 13.0747 65.5492 13.9391 65.5492 15.0003C65.5492 16.0616 65.907 16.9335 66.6206 17.601C67.342 18.2591 68.1917 18.5966 69.1717 18.5966C70.212 18.5966 71.087 18.2591 71.7773 17.5935C72.2323 17.1528 72.4909 16.5453 72.559 15.7691H69.1717V14.6853H73.6906C73.7451 14.9197 73.7606 15.1466 73.7606 15.366Z" fill="white" stroke="white" stroke-width="0.16" stroke-miterlimit="10"/>
<path d="M80.9288 11.6083H76.6841V14.4583H80.5108V15.542H76.6841V18.392H80.9288V19.4964H75.4824V10.5039H80.9288V11.6083Z" fill="white" stroke="white" stroke-width="0.16" stroke-miterlimit="10"/>
<path d="M85.9889 19.4964H84.7872V11.6083H82.1836V10.5039H88.5944V11.6083H85.9889V19.4964Z" fill="white" stroke="white" stroke-width="0.16" stroke-miterlimit="10"/>
<path d="M93.2344 19.4964V10.5039H94.4341V19.4964H93.2344Z" fill="white" stroke="white" stroke-width="0.16" stroke-miterlimit="10"/>
<path d="M99.7525 19.4964H98.5606V11.6083H95.9473V10.5039H102.366V11.6083H99.7525V19.4964Z" fill="white" stroke="white" stroke-width="0.16" stroke-miterlimit="10"/>
<path d="M114.502 18.3397C113.583 19.2491 112.443 19.7028 111.084 19.7028C109.717 19.7028 108.578 19.2491 107.658 18.3397C106.74 17.4322 106.283 16.3185 106.283 15.0003C106.283 13.6822 106.74 12.5685 107.658 11.661C108.578 10.7516 109.717 10.2979 111.084 10.2979C112.435 10.2979 113.575 10.7516 114.495 11.6685C115.42 12.5835 115.877 13.6897 115.877 15.0003C115.877 16.3185 115.42 17.4322 114.502 18.3397ZM108.547 17.586C109.239 18.2591 110.081 18.5966 111.084 18.5966C112.08 18.5966 112.929 18.2591 113.614 17.586C114.304 16.9128 114.654 16.0485 114.654 15.0003C114.654 13.9522 114.304 13.0879 113.614 12.4147C112.929 11.7416 112.08 11.4041 111.084 11.4041C110.081 11.4041 109.239 11.7416 108.547 12.4147C107.856 13.0879 107.506 13.9522 107.506 15.0003C107.506 16.0485 107.856 16.9128 108.547 17.586Z" fill="white" stroke="white" stroke-width="0.16" stroke-miterlimit="10"/>
<path d="M117.562 19.4964V10.5039H119.021L123.555 17.4977H123.608L123.555 15.7689V10.5039H124.755V19.4964H123.503L118.754 12.1577H118.702L118.754 13.8939V19.4964H117.562Z" fill="white" stroke="white" stroke-width="0.16" stroke-miterlimit="10"/>
<path d="M105.988 32.6287C102.334 32.6287 99.3493 35.31 99.3493 39.0093C99.3493 42.6787 102.334 45.3881 105.988 45.3881C109.649 45.3881 112.634 42.6787 112.634 39.0093C112.634 35.31 109.649 32.6287 105.988 32.6287ZM105.988 42.8756C103.983 42.8756 102.258 41.28 102.258 39.0093C102.258 36.7087 103.983 35.1412 105.988 35.1412C107.992 35.1412 109.725 36.7087 109.725 39.0093C109.725 41.28 107.992 42.8756 105.988 42.8756ZM91.5034 32.6287C87.8421 32.6287 84.8651 35.31 84.8651 39.0093C84.8651 42.6787 87.8421 45.3881 91.5034 45.3881C95.1629 45.3881 98.1418 42.6787 98.1418 39.0093C98.1418 35.31 95.1629 32.6287 91.5034 32.6287ZM91.5034 42.8756C89.4968 42.8756 87.7662 41.28 87.7662 39.0093C87.7662 36.7087 89.4968 35.1412 91.5034 35.1412C93.5082 35.1412 95.2329 36.7087 95.2329 39.0093C95.2329 41.28 93.5082 42.8756 91.5034 42.8756ZM74.2679 34.5843V37.2956H80.9821C80.7857 38.8106 80.2607 39.9243 79.4557 40.7006C78.4757 41.6381 76.9493 42.6787 74.2679 42.6787C70.136 42.6787 66.9004 39.4631 66.9004 35.4787C66.9004 31.4943 70.136 28.2787 74.2679 28.2787C76.5021 28.2787 78.1276 29.1206 79.3273 30.2118L81.3087 28.3012C79.6307 26.7562 77.3984 25.5693 74.2679 25.5693C68.6018 25.5693 63.8398 30.015 63.8398 35.4787C63.8398 40.9425 68.6018 45.3881 74.2679 45.3881C77.3304 45.3881 79.6307 44.4206 81.439 42.6056C83.2921 40.8187 83.8696 38.3062 83.8696 36.2775C83.8696 35.6475 83.8151 35.0681 83.7179 34.5843H74.2679ZM144.746 36.6862C144.2 35.2593 142.514 32.6287 139.08 32.6287C135.677 32.6287 132.844 35.2143 132.844 39.0093C132.844 42.5831 135.648 45.3881 139.407 45.3881C142.446 45.3881 144.2 43.6012 144.921 42.5606L142.666 41.1112C141.913 42.1725 140.888 42.8756 139.407 42.8756C137.935 42.8756 136.879 42.225 136.202 40.9425L145.051 37.4118L144.746 36.6862ZM135.724 38.8106C135.648 36.3506 137.705 35.0906 139.179 35.0906C140.334 35.0906 141.314 35.6475 141.641 36.4443L135.724 38.8106ZM128.531 45H131.44V26.25H128.531V45ZM123.768 34.05H123.67C123.017 33.3037 121.771 32.6287 120.192 32.6287C116.878 32.6287 113.849 35.4337 113.849 39.03C113.849 42.6056 116.878 45.3881 120.192 45.3881C121.771 45.3881 123.017 44.7075 123.67 43.9387H123.768V44.8537C123.768 47.2931 122.416 48.6037 120.236 48.6037C118.459 48.6037 117.357 47.3662 116.902 46.3256L114.372 47.3437C115.101 49.035 117.032 51.1162 120.236 51.1162C123.647 51.1162 126.525 49.1812 126.525 44.4731V33.0168H123.768V34.05ZM120.441 42.8756C118.436 42.8756 116.758 41.2575 116.758 39.03C116.758 36.7818 118.436 35.1412 120.441 35.1412C122.416 35.1412 123.974 36.7818 123.974 39.03C123.974 41.2575 122.416 42.8756 120.441 42.8756ZM158.365 26.25H151.408V45H154.309V37.8956H158.365C161.587 37.8956 164.747 35.6475 164.747 32.0718C164.747 28.4981 161.579 26.25 158.365 26.25ZM158.441 35.2875H154.309V28.8581H158.441C160.607 28.8581 161.844 30.5925 161.844 32.0718C161.844 33.5231 160.607 35.2875 158.441 35.2875ZM176.375 32.5931C174.278 32.5931 172.099 33.4856 171.202 35.4637L173.777 36.5043C174.331 35.4637 175.35 35.1262 176.427 35.1262C177.932 35.1262 179.458 35.9981 179.482 37.5375V37.7343C178.957 37.4418 177.833 37.0087 176.45 37.0087C173.678 37.0087 170.852 38.4806 170.852 41.2275C170.852 43.74 173.123 45.3581 175.676 45.3581C177.629 45.3581 178.706 44.5087 179.383 43.5206H179.482V44.97H182.284V37.7775C182.284 34.4531 179.709 32.5931 176.375 32.5931ZM176.025 42.8681C175.076 42.8681 173.753 42.4143 173.753 41.28C173.753 39.8287 175.402 39.2718 176.83 39.2718C178.107 39.2718 178.706 39.5437 179.482 39.9018C179.254 41.6381 177.705 42.8681 176.025 42.8681ZM192.492 33.0037L189.157 41.1318H189.058L185.611 33.0037H182.482L187.662 44.3625L184.706 50.6831H187.738L195.72 33.0037H192.492ZM166.341 45H169.25V26.25H166.341V45Z" fill="white"/>
<defs>
<linearGradient id="paint0_linear_8295_40782" x1="33.9115" y1="46.9356" x2="8.75456" y2="20.8469" gradientUnits="userSpaceOnUse">
<stop stop-color="#00A0FF"/>
<stop offset="0.0066" stop-color="#00A1FF"/>
<stop offset="0.2601" stop-color="#00BEFF"/>
<stop offset="0.5122" stop-color="#00D2FF"/>
<stop offset="0.7604" stop-color="#00DFFF"/>
<stop offset="1" stop-color="#00E3FF"/>
</linearGradient>
<linearGradient id="paint1_linear_8295_40782" x1="52.6321" y1="29.9977" x2="14.9925" y2="29.9977" gradientUnits="userSpaceOnUse">
<stop stop-color="#FFE000"/>
<stop offset="0.4087" stop-color="#FFBD00"/>
<stop offset="0.7754" stop-color="#FFA500"/>
<stop offset="1" stop-color="#FF9C00"/>
</linearGradient>
<linearGradient id="paint2_linear_8295_40782" x1="38.62" y1="26.5559" x2="4.50509" y2="-8.82246" gradientUnits="userSpaceOnUse">
<stop stop-color="#FF3A44"/>
<stop offset="1" stop-color="#C31162"/>
</linearGradient>
<linearGradient id="paint3_linear_8295_40782" x1="11.3516" y1="59.7357" x2="26.5854" y2="43.9378" gradientUnits="userSpaceOnUse">
<stop stop-color="#32A071"/>
<stop offset="0.0685" stop-color="#2DA771"/>
<stop offset="0.4762" stop-color="#15CF74"/>
<stop offset="0.8009" stop-color="#06E775"/>
<stop offset="1" stop-color="#00F076"/>
</linearGradient>
</defs>
</svg>
